<svg xmlns="http://www.w3.org/2000/svg" xmlns:xlink="http://www.w3.org/1999/xlink" width="1926" height="10522" viewBox="0 0 1926 10522"><defs><clipPath id="a"><rect width="1926" height="10522" fill="#0f0538"/></clipPath><radialGradient id="b" cx="0.5" cy="0.5" r="0.5" gradientUnits="objectBoundingBox"><stop offset="0" stop-color="#ffe200" stop-opacity="0.302"/><stop offset="1" stop-color="#ffba00" stop-opacity="0"/></radialGradient><radialGradient id="c" cx="0.5" cy="0.5" r="0.5" gradientUnits="objectBoundingBox"><stop offset="0" stop-color="#31ff00" stop-opacity="0.302"/><stop offset="1" stop-color="#27ff00" stop-opacity="0"/></radialGradient><radialGradient id="d" cx="0.5" cy="0.5" r="0.5" gradientUnits="objectBoundingBox"><stop offset="0" stop-color="#ff009d" stop-opacity="0.302"/><stop offset="1" stop-color="#ff00a7" stop-opacity="0"/></radialGradient><radialGradient id="f" cx="0.5" cy="0.5" r="0.5" gradientUnits="objectBoundingBox"><stop offset="0" stop-color="#9d00ff" stop-opacity="0.302"/><stop offset="1" stop-color="#5800ff" stop-opacity="0"/></radialGradient><radialGradient id="j" cx="0.5" cy="0.5" r="0.5" gradientUnits="objectBoundingBox"><stop offset="0" stop-color="#a700ff" stop-opacity="0.302"/><stop offset="1" stop-color="#a700ff" stop-opacity="0"/></radialGradient><radialGradient id="l" cx="0.5" cy="0.5" r="0.5" gradientUnits="objectBoundingBox"><stop offset="0" stop-color="#ffce00" stop-opacity="0.302"/><stop offset="1" stop-color="#ffce00" stop-opacity="0"/></radialGradient><radialGradient id="m" cx="0.5" cy="0.5" r="0.5" gradientUnits="objectBoundingBox"><stop offset="0" stop-color="#0089ff" stop-opacity="0.302"/><stop offset="1" stop-color="#00baff" stop-opacity="0"/></radialGradient><radialGradient id="n" cx="0.5" cy="0.5" r="0.5" gradientUnits="objectBoundingBox"><stop offset="0" stop-color="#009dff" stop-opacity="0.302"/><stop offset="1" stop-color="#0093ff" stop-opacity="0"/></radialGradient><radialGradient id="p" cx="0.5" cy="0.5" r="0.5" gradientUnits="objectBoundingBox"><stop offset="0" stop-color="#e200ff" stop-opacity="0.302"/><stop offset="1" stop-color="#e200ff" stop-opacity="0"/></radialGradient><radialGradient id="v" cx="0.5" cy="0.5" r="0.5" gradientUnits="objectBoundingBox"><stop offset="0" stop-color="#00d8ff" stop-opacity="0.302"/><stop offset="1" stop-color="#00d8ff" stop-opacity="0"/></radialGradient></defs><rect width="1926" height="10522" fill="#0f0538"/><g clip-path="url(#a)"><circle cx="524.5" cy="524.5" r="524.5" transform="translate(2412 7858) rotate(180)" opacity="0.7" fill="url(#b)"/><circle cx="524.5" cy="524.5" r="524.5" transform="translate(2261 8273) rotate(180)" opacity="0.7" fill="url(#c)"/><g transform="translate(-1964.75 -746.75)" opacity="0.4"><circle cx="670.5" cy="670.5" r="670.5" transform="translate(1328.75 1909.75)" fill="url(#d)"/><circle cx="397.5" cy="397.5" r="397.5" transform="translate(1601.75 2182.75)" fill="url(#d)"/></g><g transform="translate(-1501 -2276)" opacity="0.6"><circle cx="447.5" cy="447.5" r="447.5" transform="translate(1329 1910)" fill="url(#f)"/><circle cx="265.5" cy="265.5" r="265.5" transform="translate(1511 2092)" fill="url(#f)"/></g><g transform="translate(-248.307 -438.878)" opacity="0.8"><g transform="translate(948.779 19.911)"><circle cx="650" cy="650" r="650" transform="translate(-0.472 -0.033)" fill="url(#d)"/><ellipse cx="386" cy="385.5" rx="386" ry="385.5" transform="translate(263.528 264.967)" fill="url(#d)"/></g><g transform="translate(1430.452 503.584)"><circle cx="374" cy="374" r="374" transform="translate(-0.145 0.294)" fill="url(#j)"/><circle cx="222" cy="222" r="222" transform="translate(151.855 152.294)" fill="url(#j)"/></g><g transform="translate(1300.932 768.438)"><ellipse cx="269" cy="269.5" rx="269" ry="269.5" transform="translate(0.374 -0.56)" fill="url(#l)"/></g></g><g transform="translate(10807.789 1226.789)" opacity="0.5"><circle cx="541.5" cy="541.5" r="541.5" transform="translate(-11185.789 1667.211)" fill="url(#m)"/></g><g transform="translate(-5 -227)"><g transform="translate(12479.938 2487.938)" opacity="0.5"><circle cx="724.5" cy="724.5" r="724.5" transform="translate(-11484.938 1368.063)" fill="url(#n)"/><circle cx="425.5" cy="425.5" r="425.5" transform="translate(-11185.938 1667.063)" fill="url(#n)"/></g><g transform="translate(12590.938 2903.938)" opacity="0.5"><circle cx="724.5" cy="724.5" r="724.5" transform="translate(-11484.938 1368.063)" fill="url(#p)"/><circle cx="425.5" cy="425.5" r="425.5" transform="translate(-11185.938 1667.063)" fill="url(#p)"/></g></g><g transform="translate(12728.938 751.938)" opacity="0.5"><circle cx="334.5" cy="334.5" r="334.5" transform="translate(-11388.938 1472.063)" fill="url(#m)"/><circle cx="229.5" cy="229.5" r="229.5" transform="translate(-11283.938 1577.063)" fill="url(#m)"/></g><g transform="translate(167.5 -439.5)" opacity="0.5"><circle cx="203" cy="203" r="203" transform="translate(908.5 2660.5)" fill="url(#l)"/><circle cx="110.5" cy="110.5" r="110.5" transform="translate(1021.5 2752.5)" fill="url(#l)"/></g><circle cx="512.5" cy="512.5" r="512.5" transform="translate(490 6647) rotate(180)" opacity="0.7" fill="url(#v)"/><ellipse cx="551.5" cy="552" rx="551.5" ry="552" transform="translate(606 6259) rotate(180)" opacity="0.7" fill="url(#b)"/><g transform="translate(-34 1022)" opacity="0.3"><circle cx="421.5" cy="421.5" r="421.5" transform="translate(1329 1910)" fill="url(#d)"/><circle cx="250.5" cy="250.5" r="250.5" transform="translate(1500 2081)" fill="url(#d)"/></g></g></svg>