<svg xmlns="http://www.w3.org/2000/svg" xmlns:xlink="http://www.w3.org/1999/xlink" width="101" height="90" viewBox="0 0 101 90">
  <defs>
    <clipPath id="clip-path">
      <rect id="Rectangle_2234" data-name="Rectangle 2234" width="101" height="90" transform="translate(-0.225 -1.476)" fill="none"/>
    </clipPath>
    <linearGradient id="linear-gradient" x1="0.844" y1="0.245" x2="0.246" y2="0.791" gradientUnits="objectBoundingBox">
      <stop offset="0" stop-color="#00e580"/>
      <stop offset="1" stop-color="#57ffb5" stop-opacity="0"/>
    </linearGradient>
    <linearGradient id="linear-gradient-2" x1="0.317" y1="0.112" x2="0.799" y2="0.709" xlink:href="#linear-gradient"/>
    <linearGradient id="linear-gradient-3" x1="1.047" y1="0.294" x2="-0.385" y2="0.84" gradientUnits="objectBoundingBox">
      <stop offset="0" stop-color="#57ffb5"/>
      <stop offset="1" stop-color="#00b725"/>
    </linearGradient>
    <linearGradient id="linear-gradient-4" x1="-0.137" y1="0.318" x2="1.077" y2="1.035" xlink:href="#linear-gradient-3"/>
    <linearGradient id="linear-gradient-5" x1="0.339" x2="1" y2="1.257" gradientUnits="objectBoundingBox">
      <stop offset="0" stop-color="#57ffb5"/>
      <stop offset="0.894" stop-color="#00b725"/>
      <stop offset="1"/>
    </linearGradient>
    <linearGradient id="linear-gradient-6" x1="0.5" y1="-0.03" x2="0.595" y2="1.064" xlink:href="#linear-gradient-3"/>
    <linearGradient id="linear-gradient-7" x1="0.5" x2="0.5" y2="1" gradientUnits="objectBoundingBox">
      <stop offset="0" stop-color="#14c746"/>
      <stop offset="1" stop-color="#5cffb4"/>
    </linearGradient>
  </defs>
  <g id="Mask_Group_33" data-name="Mask Group 33" transform="translate(0.225 1.476)" clip-path="url(#clip-path)">
    <g id="Group_11311" data-name="Group 11311" transform="translate(-1263.225 -3228.476)">
      <g id="Group_11307" data-name="Group 11307" transform="translate(0 -3)">
        <path id="Subtraction_6" data-name="Subtraction 6" d="M20955.75,153.933a24.154,24.154,0,0,1-1.656-48.25c.566-.039,1.139-.059,1.7-.059a24.153,24.153,0,0,1,1.666,48.249C20956.895,153.913,20956.318,153.933,20955.75,153.933Zm-6.732-19.906c-.383,0-.779,0-1.164.005-.408,0-.65.025-.764.158s-.1.375-.031.8a6.685,6.685,0,0,0,1.982,3.862,6.58,6.58,0,0,0,3.967,1.73c.416.038.564.188.564.574a10.943,10.943,0,0,0,.063,1.427,2.073,2.073,0,0,0,2.08,1.938h.063a2.164,2.164,0,0,0,2.111-2.148c.01-.211.01-.427.01-.636v-.094c0-.094,0-.192,0-.287,0-.711,0-.711.666-.771l.029,0a6.529,6.529,0,0,0,4.547-2.491,6.528,6.528,0,0,0-5.217-10.467c-.625-.005-1.258-.005-1.869-.005h-1.242c-.5,0-.885,0-1.242-.007a2.377,2.377,0,0,1-1.7-.688,2.176,2.176,0,0,1-.6-1.565,2.217,2.217,0,0,1,2.316-2.175c.707-.008,1.428-.012,2.141-.012s1.432,0,2.141.012a2.161,2.161,0,0,1,2.273,1.753c.105.463.326.548.721.548h.039c.264,0,.553,0,.883,0l.871,0h.01l.889,0c.451,0,.7-.029.822-.169s.105-.4.031-.873a6.473,6.473,0,0,0-5.887-5.508c-.547-.05-.643-.282-.633-.721,0-.055,0-.11,0-.165,0-.028,0-.055,0-.083a4.434,4.434,0,0,0-.084-1.311,2.133,2.133,0,0,0-2.055-1.655h-.078a2.076,2.076,0,0,0-2.031,1.848,9.018,9.018,0,0,0-.074,1.275v.04c0,.693,0,.693-.674.764h-.012a7,7,0,0,0-.736.121,6.447,6.447,0,0,0-3.746,2.321,6.62,6.62,0,0,0-1.4,4.224,6.385,6.385,0,0,0,1.566,4.024,6.527,6.527,0,0,0,3.768,2.163,8.914,8.914,0,0,0,1.508.1l.4,0h.084c.166,0,.32,0,.473,0,.227,0,.408,0,.574.015l.787,0h.02l.688,0c.412,0,.73,0,1.033.009a2.218,2.218,0,1,1-.006,4.434c-.6.009-1.234.013-1.877.013-.766,0-1.553-.006-2.4-.019a2.15,2.15,0,0,1-2.273-1.748.625.625,0,0,0-.715-.554h-.055c-.256,0-.518,0-.775,0s-.521,0-.777,0Z" transform="translate(-19619 3127)" stroke="rgba(0,0,0,0)" stroke-width="1" opacity="0.4" fill="url(#linear-gradient)"/>
        <path id="Subtraction_5" data-name="Subtraction 5" d="M20950.168,140.329a16.172,16.172,0,1,1,4.725-.709A16.068,16.068,0,0,1,20950.168,140.329Zm-5.674-13.138c-.3,0-.473.021-.553.117s-.07.27-.021.578a4.8,4.8,0,0,0,1.428,2.78,4.734,4.734,0,0,0,2.855,1.245c.3.027.406.136.406.416a8.209,8.209,0,0,0,.047,1.021,1.5,1.5,0,0,0,1.5,1.4h.043a1.558,1.558,0,0,0,1.52-1.547c.012-.176.008-.356.006-.529v-.2c.008-.516.008-.516.486-.557h.014a4.639,4.639,0,0,0,4.168-5.431,4.632,4.632,0,0,0-4.646-3.9c-.209,0-.42,0-.629,0s-.42,0-.629,0c-.617,0-1.254,0-1.879-.005a1.713,1.713,0,0,1-1.223-.491,1.6,1.6,0,0,1,1.232-2.7c.463-.007.967-.011,1.543-.011.518,0,1.037,0,1.541.005a1.557,1.557,0,0,1,1.637,1.263c.08.34.24.4.547.4.156,0,.324-.007.545-.007h1.365c.328,0,.512-.018.6-.119s.076-.292.023-.628a4.671,4.671,0,0,0-4.24-3.968c-.354-.03-.471-.161-.459-.521,0-.05,0-.1,0-.149a3.25,3.25,0,0,0-.057-.971,1.539,1.539,0,0,0-1.494-1.2h-.047a1.521,1.521,0,0,0-1.463,1.331,7.783,7.783,0,0,0-.051.88v.005l0,.046v.029c0,.493,0,.493-.49.544a4.411,4.411,0,0,0-.531.084,4.671,4.671,0,0,0,.127,9.167,6.25,6.25,0,0,0,1.082.076l.334,0c.1,0,.2,0,.291,0,.186,0,.344,0,.486.014l.664,0h.01l.568,0c.219,0,.4,0,.574,0a1.6,1.6,0,1,1,0,3.194c-.436.007-.891.01-1.393.01s-1.029,0-1.691-.01a1.559,1.559,0,0,1-1.637-1.263.457.457,0,0,0-.523-.4h-.029c-.281,0-.582.007-.979.007h-.979Z" transform="translate(-19667 3134)" stroke="rgba(0,0,0,0)" stroke-width="1" opacity="0.4" fill="url(#linear-gradient-2)"/>
      </g>
      <g id="Group_11306" data-name="Group 11306" transform="translate(-4.061 -4.387)">
        <path id="Path_13457" data-name="Path 13457" d="M1008.05,506.761A81.2,81.2,0,0,1,994.6,505.75a38.357,38.357,0,0,1-5.92-1.49c-1.092-.375-1.293-.658-1.293-1.8,0-6.371.01-12.743-.013-19.114a1.852,1.852,0,0,1,.958-1.728,13.353,13.353,0,0,1,8.8-1.958c4.111.449,7.872,3.114,11.3,5.432a11.708,11.708,0,0,0,4.8,2,14.155,14.155,0,0,0,3.528.285c2.862-.144,4.618.167,4.739,3.271.1,2.518-1.505,3.144-3.444,3.863-2.331.789-8.548,1.142-14.052,0a14.177,14.177,0,0,1-3.659-1.3c-.2-.105-2.788,1.48,1.078,4.114,1.236.465,4.826,3.284,16.633,2.106,4.93-.488,10.426-4.508,9.974-8.784-.051-.483.206-.5.521-.547,2.114-.577,2.747-1.135,5.547-2.127a46.87,46.87,0,0,0,8.043-3.747,6.325,6.325,0,0,1,2.318-.931,4.895,4.895,0,0,1,5.178,3.049,5.15,5.15,0,0,1-1.509,6.035,46.777,46.777,0,0,1-5.742,4.053,85.411,85.411,0,0,1-16.92,7.606,48.314,48.314,0,0,1-9.106,2.26,38.242,38.242,0,0,1-4.192.376C1010.79,506.713,1009.421,506.788,1008.05,506.761Z" transform="translate(300.324 2805.088)" stroke="rgba(0,0,0,0)" stroke-width="1" fill="url(#linear-gradient-3)"/>
        <path id="Path_13458" data-name="Path 13458" d="M1012.4,204.977a25.145,25.145,0,0,1,35.052-23.154,24.848,24.848,0,0,1,11.829,10.482,24.452,24.452,0,0,1,3.337,10.954c.035.533.071.564.625.565q.873,0,1.747-.005a1.046,1.046,0,0,1,1.044.609,1.1,1.1,0,0,1-.189,1.244q-2.96,3.518-5.921,7.035a1.087,1.087,0,0,1-1.742-.007c-.621-.707-1.214-1.439-1.819-2.159q-1.918-2.279-3.839-4.555c-.391-.461-.757-.93-.445-1.565.289-.586.848-.62,1.417-.6.428.011.856.007,1.284.006.6,0,.637-.038.567-.654a17.928,17.928,0,0,0-10.077-14.37,17.629,17.629,0,0,0-6.047-1.693,17.106,17.106,0,0,0-10.435,2.168A17.848,17.848,0,0,0,1019.732,207c.088.785.143.707-.612.675a18.788,18.788,0,0,0-5.153.41c-.266.063-.529.142-.787.23-.511.174-.586.138-.644-.415a17.442,17.442,0,0,1-.139-2.1C1012.4,205.524,1012.4,205.25,1012.4,204.977Z" transform="translate(277.873 3074.076)" stroke="rgba(0,0,0,0)" stroke-width="1" fill="url(#linear-gradient-4)"/>
        <path id="Rectangle_2196" data-name="Rectangle 2196" d="M875.854,479.19h4.213a2.554,2.554,0,0,1,2.553,2.555v22.124a2.554,2.554,0,0,1-2.553,2.555h-4.213a2.554,2.554,0,0,1-2.553-2.555V481.745A2.554,2.554,0,0,1,875.854,479.19Z" transform="translate(401.673 2805.431)" stroke="rgba(0,0,0,0)" stroke-width="1" fill="url(#linear-gradient-5)"/>
        <path id="Path_13459" data-name="Path 13459" d="M1198.9,312.8a17.953,17.953,0,0,1-2.3-.085,4.9,4.9,0,0,1-.138-9.621,5.644,5.644,0,0,1,.557-.09c.524-.055.517-.052.519-.6a7.082,7.082,0,0,1,.053-.973,1.583,1.583,0,0,1,1.535-1.4,1.61,1.61,0,0,1,1.614,1.253,4.132,4.132,0,0,1,.059,1.176c-.009.351.085.51.479.546a4.9,4.9,0,0,1,4.448,4.164c.113.7.048.783-.647.785-.668,0-1.336-.006-2,0-.3,0-.488-.049-.574-.416a1.628,1.628,0,0,0-1.718-1.325c-1.079-.01-2.158-.012-3.237,0a1.676,1.676,0,1,0-.009,3.349c1.1.015,2.192,0,3.288.007a4.909,4.909,0,0,1,.506,9.794c-.518.047-.52.039-.526.583,0,.257.007.514,0,.77a1.642,1.642,0,0,1-1.6,1.624,1.573,1.573,0,0,1-1.62-1.467,8.6,8.6,0,0,1-.047-1.076c0-.3-.124-.406-.427-.434a4.881,4.881,0,0,1-4.5-4.226c-.1-.642-.037-.725.6-.728.685,0,1.37.007,2.055,0,.311,0,.487.067.579.419a1.639,1.639,0,0,0,1.72,1.323c1.079.014,2.158.017,3.237,0a1.677,1.677,0,1,0,0-3.352C1200.211,312.792,1199.611,312.8,1198.9,312.8Z" transform="translate(116.213 2966.178)" stroke="rgba(0,0,0,0)" stroke-width="1" fill="url(#linear-gradient-6)"/>
        <path id="Polygon_35" data-name="Polygon 35" d="M8.52,1.628a2,2,0,0,1,2.96,0l5.479,6.027A2,2,0,0,1,15.479,11H4.521a2,2,0,0,1-1.48-3.345Z" transform="translate(1347.061 3288.387) rotate(180)" fill="url(#linear-gradient-7)"/>
      </g>
    </g>
  </g>
</svg>
