<svg xmlns="http://www.w3.org/2000/svg" xmlns:xlink="http://www.w3.org/1999/xlink" width="101" height="90" viewBox="0 0 101 90">
  <defs>
    <clipPath id="clip-path">
      <rect id="Rectangle_2195" data-name="Rectangle 2195" width="101" height="90" transform="translate(-0.179 -0.476)" fill="none"/>
    </clipPath>
    <linearGradient id="linear-gradient" x1="0.964" y1="0.5" x2="0" y2="0.5" gradientUnits="objectBoundingBox">
      <stop offset="0" stop-color="#a44ffc"/>
      <stop offset="1" stop-color="#a34aff" stop-opacity="0"/>
    </linearGradient>
    <linearGradient id="linear-gradient-2" x1="0.025" y1="0.5" x2="1" y2="0.5" gradientUnits="objectBoundingBox">
      <stop offset="0" stop-color="#e281ff"/>
      <stop offset="0.472" stop-color="#a041ff"/>
      <stop offset="1" stop-color="#e281ff"/>
    </linearGradient>
  </defs>
  <g id="Mask_Group_28" data-name="Mask Group 28" transform="translate(0.179 0.476)" clip-path="url(#clip-path)">
    <path id="Path_13329" data-name="Path 13329" d="M40.263,0A40.263,40.263,0,1,1,0,40.263,40.263,40.263,0,0,1,40.263,0Z" transform="translate(19.889 4.422)" stroke="rgba(0,0,0,0)" stroke-width="1" opacity="0.3" fill="url(#linear-gradient)"/>
    <path id="Subtraction_2" data-name="Subtraction 2" d="M64.718,41.353a21.912,21.912,0,0,1-11.792-3.594,46.493,46.493,0,0,1-9.553-8.472c-.178-.2-.371-.415-.59-.662l-.071.078c-1.044,1.136-2.031,2.209-3.107,3.3a33.424,33.424,0,0,1-10.077,7.422,21.315,21.315,0,0,1-8.8,1.914A20.743,20.743,0,0,1,.222,23.616,20.658,20.658,0,0,1,13.15,1.457,21.7,21.7,0,0,1,20.828,0,22.623,22.623,0,0,1,33.283,3.994a45.526,45.526,0,0,1,8.348,7.325l-.025.023,9.147,10.575.02-.017.134.15.024.027.273.305a35.165,35.165,0,0,0,7.3,6.512,11.825,11.825,0,0,0,6.336,1.973,10.822,10.822,0,0,0,2.141-.219,10.173,10.173,0,0,0,.92-19.7,10.945,10.945,0,0,0-3.131-.472,11.828,11.828,0,0,0-6.27,1.93A30.591,30.591,0,0,0,52.245,17.7L45.364,9.821A40.038,40.038,0,0,1,53.5,3.235,22.2,22.2,0,0,1,64.964.017c.558,0,1.131.022,1.7.064A20.371,20.371,0,0,1,78.7,5.353,20.62,20.62,0,0,1,69.057,40.9,21.425,21.425,0,0,1,64.718,41.353ZM20.789,10.479a11.135,11.135,0,0,0-2.129.21,10.323,10.323,0,0,0-8.153,8.706,10.121,10.121,0,0,0,6.009,10.571,10.687,10.687,0,0,0,4.236.915,11.814,11.814,0,0,0,6.314-2c3.4-2.119,6.029-5.005,8.865-8.284l-.113-.131-.084-.1-.087-.1A42.169,42.169,0,0,0,27.9,12.938,12.549,12.549,0,0,0,20.789,10.479Z" transform="translate(3.428 24.308)" stroke="rgba(0,0,0,0)" stroke-width="1" fill="url(#linear-gradient-2)"/>
  </g>
</svg>
